<svg width="186" height="26" viewBox="0 0 186 26" fill="none" xmlns="http://www.w3.org/2000/svg">
<path d="M9.98 0.799998C13.028 0.799998 15.284 1.304 16.748 2.312C18.236 3.296 18.98 5.048 18.98 7.568C18.98 10.088 18.248 12.092 16.784 13.58C15.32 15.044 12.956 15.776 9.692 15.776H6.668L6.56 23.588L9.368 23.84C9.368 24.512 9.164 25.232 8.756 26H0.656L0.548 24.776C1.556 24.392 2.588 24.104 3.644 23.912C3.5 14.552 3.38 7.592 3.284 3.032C2.636 2.912 1.58 2.624 0.116 2.168L0.296 0.799998H9.98ZM9.332 13.436C11.396 13.412 12.968 12.896 14.048 11.888C15.128 10.856 15.668 9.5 15.668 7.82C15.668 6.14 15.14 4.976 14.084 4.328C13.028 3.656 11.336 3.32 9.008 3.32C8.576 3.32 7.844 3.332 6.812 3.356C6.812 3.38 6.776 6.752 6.704 13.472L9.332 13.436ZM37.131 3.68C36.363 3.44 35.343 3.32 34.071 3.32H31.083L30.975 12.392L33.711 12.356C35.487 12.332 36.903 11.972 37.959 11.276C39.015 10.58 39.543 9.26 39.543 7.316C39.543 5.348 38.739 4.136 37.131 3.68ZM30.939 14.696L30.831 23.588L33.819 23.84C33.819 24.512 33.615 25.232 33.207 26H24.927L24.819 24.74C25.827 24.38 26.859 24.104 27.915 23.912C27.771 14.792 27.651 7.832 27.555 3.032C26.883 2.936 25.827 2.648 24.387 2.168C24.387 1.856 24.447 1.4 24.567 0.799998H32.667C37.059 0.799998 39.915 1.34 41.235 2.42C42.531 3.452 43.179 5.072 43.179 7.28C43.179 11 41.139 13.412 37.059 14.516L43.215 23.624L46.203 23.876C46.203 24.524 45.999 25.232 45.591 26H41.163L33.603 14.696H30.939ZM59.316 3.104L58.956 23.552L61.98 23.84C61.98 24.512 61.776 25.232 61.368 26H53.088L52.98 24.74C54.084 24.356 55.176 24.068 56.256 23.876C56.208 22.316 56.124 19.1 56.004 14.228C55.908 9.356 55.824 5.588 55.752 2.924C54.792 2.732 53.712 2.444 52.512 2.06L52.62 0.799998H61.62C62.028 1.568 62.232 2.288 62.232 2.96C61.008 3.056 60.036 3.104 59.316 3.104ZM95.2038 3.284L98.9838 23.552L102.26 23.876C102.26 24.524 102.056 25.232 101.648 26H93.3678L93.2598 24.74C93.9798 24.428 94.8678 24.176 95.9238 23.984L92.0718 3.788L87.3198 24.272H83.7558L77.2038 3.716L74.2878 23.552L77.3478 23.84C77.3478 24.512 77.1438 25.232 76.7358 26H68.4558L68.3478 24.74C69.4038 24.356 70.4598 24.068 71.5158 23.876L74.6838 2.996C73.2198 2.78 72.0558 2.528 71.1918 2.24L71.3358 0.799998H79.7238L85.4478 20.528H85.5918L90.0558 0.799998H98.0838C98.4918 1.568 98.6958 2.312 98.6958 3.032C97.1358 3.2 95.9718 3.284 95.2038 3.284ZM112.184 1.556C112.616 1.412 113.792 1.256 115.712 1.088C117.632 0.895998 119.372 0.799998 120.932 0.799998C122.516 0.799998 123.74 0.871999 124.604 1.016C124.628 1.112 124.64 1.232 124.64 1.376C124.64 1.496 124.568 1.796 124.424 2.276C124.304 2.756 124.208 3.068 124.136 3.212C123.944 3.404 123.404 3.548 122.516 3.644L129.392 23.552L132.812 23.84C132.812 24.512 132.608 25.232 132.2 26H123.92L123.812 24.74C124.364 24.452 125.168 24.2 126.224 23.984L124.388 18.836H114.344L112.652 23.552L115.568 23.84C115.568 24.512 115.364 25.232 114.956 26H106.676L106.568 24.74C107.504 24.404 108.5 24.14 109.556 23.948L116.54 3.536C114.404 3.296 112.904 3.008 112.04 2.672L112.184 1.556ZM121.544 10.808L119.636 3.752C119.492 3.728 119.288 3.716 119.024 3.716L117.08 11.06L114.992 16.532H123.74L121.544 10.808ZM150.426 3.68C149.658 3.44 148.638 3.32 147.366 3.32H144.378L144.27 12.392L147.006 12.356C148.782 12.332 150.198 11.972 151.254 11.276C152.31 10.58 152.838 9.26 152.838 7.316C152.838 5.348 152.034 4.136 150.426 3.68ZM144.234 14.696L144.126 23.588L147.114 23.84C147.114 24.512 146.91 25.232 146.502 26H138.222L138.114 24.74C139.122 24.38 140.154 24.104 141.21 23.912C141.066 14.792 140.946 7.832 140.85 3.032C140.178 2.936 139.122 2.648 137.682 2.168C137.682 1.856 137.742 1.4 137.862 0.799998H145.962C150.354 0.799998 153.21 1.34 154.53 2.42C155.826 3.452 156.474 5.072 156.474 7.28C156.474 11 154.434 13.412 150.354 14.516L156.51 23.624L159.498 23.876C159.498 24.524 159.294 25.232 158.886 26H154.458L146.898 14.696H144.234ZM176.931 3.032C176.811 7.064 176.679 13.904 176.535 23.552L179.559 23.84C179.559 24.512 179.355 25.232 178.947 26H170.667L170.559 24.74C171.951 24.236 173.055 23.948 173.871 23.876C173.631 14.612 173.439 7.664 173.295 3.032H168.039L167.175 6.704L165.087 6.56C164.727 5.096 164.547 3.608 164.547 2.096C164.547 1.808 164.571 1.376 164.619 0.799998H185.355C185.403 1.112 185.427 1.592 185.427 2.24C185.427 3.536 185.259 4.952 184.923 6.488C184.395 6.632 183.699 6.704 182.835 6.704L181.935 3.032H176.931Z" fill="#D2CEB6"/>
</svg>
