<svg width="232" height="49" viewBox="0 0 232 49" fill="none" xmlns="http://www.w3.org/2000/svg">
<path d="M5.80023 11.6001V7.25007C5.80023 6.25247 5.98873 5.31577 6.36573 4.43997C6.74273 3.54967 7.26473 2.77827 7.92883 2.12867C8.57843 1.46457 9.34983 0.942571 10.2401 0.565571C11.1159 0.188571 12.0526 7.16249e-05 13.0502 7.16249e-05C13.8651 7.16249e-05 14.6423 0.127671 15.3847 0.385771C16.1271 0.643871 16.8057 1.00637 17.4234 1.47327C18.6632 0.517476 20.1848 -0.000584943 21.7502 7.16249e-05C23.1791 -0.00629904 24.5777 0.412442 25.768 1.20304C26.9583 1.99364 27.8865 3.12038 28.4347 4.43997C28.8117 5.31577 29.0002 6.25247 29.0002 7.25007V11.6001H31.9002C32.6694 11.6001 33.407 11.9056 33.9508 12.4495C34.4947 12.9933 34.8002 13.7309 34.8002 14.5001V37.7001C34.8002 38.9094 34.574 40.0404 34.1216 41.0989C33.6692 42.14 33.0486 43.0622 32.2627 43.8626C31.7407 44.373 31.1694 44.8138 30.5401 45.185L28.8291 44.4426L27.3936 43.8017L26.7788 43.4624L26.135 42.9839L25.4361 42.3691L24.6589 41.5397C23.7089 40.4877 23.1883 39.1175 23.2002 37.7001V11.6001H26.1002V7.25007C26.1002 6.64687 25.9871 6.07847 25.7609 5.55067C25.4327 4.75948 24.8755 4.08443 24.1609 3.61215C23.4462 3.13986 22.6068 2.8919 21.7502 2.90007C20.8599 2.90007 20.0595 3.14947 19.349 3.64827C19.974 4.74568 20.3019 5.98717 20.3002 7.25007V37.7001C20.288 39.8434 21.0807 41.9133 22.5216 43.5001L23.4177 44.4571L24.3109 45.2401L25.207 45.9071L26.1002 46.4001H8.70023C6.39872 46.3996 4.19117 45.4872 2.56093 43.8626C1.7652 43.0686 1.1275 42.1308 0.681733 41.0989C0.223587 40.0248 -0.00840032 38.8678 0.000232369 37.7001V14.5001C0.000232369 13.7309 0.305768 12.9933 0.849623 12.4495C1.39348 11.9056 2.1311 11.6001 2.90023 11.6001H5.80023ZM8.70023 11.6001H17.4002V7.25007C17.4002 6.64687 17.2871 6.07847 17.0609 5.55067C16.7327 4.75948 16.1755 4.08443 15.4609 3.61215C14.7462 3.13986 13.9068 2.8919 13.0502 2.90007C12.447 2.90007 11.8786 3.01317 11.3508 3.23937C10.5596 3.56763 9.88459 4.12483 9.41231 4.83945C8.94002 5.55408 8.69206 6.39353 8.70023 7.25007V11.6001Z" fill="#FF9A62"/>
<path d="M54.98 12.8C58.028 12.8 60.284 13.304 61.748 14.312C63.236 15.296 63.98 17.048 63.98 19.568C63.98 22.088 63.248 24.092 61.784 25.58C60.32 27.044 57.956 27.776 54.692 27.776H51.668L51.56 35.588L54.368 35.84C54.368 36.512 54.164 37.232 53.756 38H45.656L45.548 36.776C46.556 36.392 47.588 36.104 48.644 35.912C48.5 26.552 48.38 19.592 48.284 15.032C47.636 14.912 46.58 14.624 45.116 14.168L45.296 12.8H54.98ZM54.332 25.436C56.396 25.412 57.968 24.896 59.048 23.888C60.128 22.856 60.668 21.5 60.668 19.82C60.668 18.14 60.14 16.976 59.084 16.328C58.028 15.656 56.336 15.32 54.008 15.32C53.576 15.32 52.844 15.332 51.812 15.356C51.812 15.38 51.776 18.752 51.704 25.472L54.332 25.436ZM82.131 15.68C81.363 15.44 80.343 15.32 79.071 15.32H76.083L75.975 24.392L78.711 24.356C80.487 24.332 81.903 23.972 82.959 23.276C84.015 22.58 84.543 21.26 84.543 19.316C84.543 17.348 83.739 16.136 82.131 15.68ZM75.939 26.696L75.831 35.588L78.819 35.84C78.819 36.512 78.615 37.232 78.207 38H69.927L69.819 36.74C70.827 36.38 71.859 36.104 72.915 35.912C72.771 26.792 72.651 19.832 72.555 15.032C71.883 14.936 70.827 14.648 69.387 14.168C69.387 13.856 69.447 13.4 69.567 12.8H77.667C82.059 12.8 84.915 13.34 86.235 14.42C87.531 15.452 88.179 17.072 88.179 19.28C88.179 23 86.139 25.412 82.059 26.516L88.215 35.624L91.203 35.876C91.203 36.524 90.999 37.232 90.591 38H86.163L78.603 26.696H75.939ZM104.316 15.104L103.956 35.552L106.98 35.84C106.98 36.512 106.776 37.232 106.368 38H98.088L97.98 36.74C99.084 36.356 100.176 36.068 101.256 35.876C101.208 34.316 101.124 31.1 101.004 26.228C100.908 21.356 100.824 17.588 100.752 14.924C99.792 14.732 98.712 14.444 97.512 14.06L97.62 12.8H106.62C107.028 13.568 107.232 14.288 107.232 14.96C106.008 15.056 105.036 15.104 104.316 15.104ZM140.204 15.284L143.984 35.552L147.26 35.876C147.26 36.524 147.056 37.232 146.648 38H138.368L138.26 36.74C138.98 36.428 139.868 36.176 140.924 35.984L137.072 15.788L132.32 36.272H128.756L122.204 15.716L119.288 35.552L122.348 35.84C122.348 36.512 122.144 37.232 121.736 38H113.456L113.348 36.74C114.404 36.356 115.46 36.068 116.516 35.876L119.684 14.996C118.22 14.78 117.056 14.528 116.192 14.24L116.336 12.8H124.724L130.448 32.528H130.592L135.056 12.8H143.084C143.492 13.568 143.696 14.312 143.696 15.032C142.136 15.2 140.972 15.284 140.204 15.284ZM157.184 13.556C157.616 13.412 158.792 13.256 160.712 13.088C162.632 12.896 164.372 12.8 165.932 12.8C167.516 12.8 168.74 12.872 169.604 13.016C169.628 13.112 169.64 13.232 169.64 13.376C169.64 13.496 169.568 13.796 169.424 14.276C169.304 14.756 169.208 15.068 169.136 15.212C168.944 15.404 168.404 15.548 167.516 15.644L174.392 35.552L177.812 35.84C177.812 36.512 177.608 37.232 177.2 38H168.92L168.812 36.74C169.364 36.452 170.168 36.2 171.224 35.984L169.388 30.836H159.344L157.652 35.552L160.568 35.84C160.568 36.512 160.364 37.232 159.956 38H151.676L151.568 36.74C152.504 36.404 153.5 36.14 154.556 35.948L161.54 15.536C159.404 15.296 157.904 15.008 157.04 14.672L157.184 13.556ZM166.544 22.808L164.636 15.752C164.492 15.728 164.288 15.716 164.024 15.716L162.08 23.06L159.992 28.532H168.74L166.544 22.808ZM195.426 15.68C194.658 15.44 193.638 15.32 192.366 15.32H189.378L189.27 24.392L192.006 24.356C193.782 24.332 195.198 23.972 196.254 23.276C197.31 22.58 197.838 21.26 197.838 19.316C197.838 17.348 197.034 16.136 195.426 15.68ZM189.234 26.696L189.126 35.588L192.114 35.84C192.114 36.512 191.91 37.232 191.502 38H183.222L183.114 36.74C184.122 36.38 185.154 36.104 186.21 35.912C186.066 26.792 185.946 19.832 185.85 15.032C185.178 14.936 184.122 14.648 182.682 14.168C182.682 13.856 182.742 13.4 182.862 12.8H190.962C195.354 12.8 198.21 13.34 199.53 14.42C200.826 15.452 201.474 17.072 201.474 19.28C201.474 23 199.434 25.412 195.354 26.516L201.51 35.624L204.498 35.876C204.498 36.524 204.294 37.232 203.886 38H199.458L191.898 26.696H189.234ZM221.931 15.032C221.811 19.064 221.679 25.904 221.535 35.552L224.559 35.84C224.559 36.512 224.355 37.232 223.947 38H215.667L215.559 36.74C216.951 36.236 218.055 35.948 218.871 35.876C218.631 26.612 218.439 19.664 218.295 15.032H213.039L212.175 18.704L210.087 18.56C209.727 17.096 209.547 15.608 209.547 14.096C209.547 13.808 209.571 13.376 209.619 12.8H230.355C230.403 13.112 230.427 13.592 230.427 14.24C230.427 15.536 230.259 16.952 229.923 18.488C229.395 18.632 228.699 18.704 227.835 18.704L226.935 15.032H221.931Z" fill="#D2CEB6"/>
</svg>
