<svg width="35" height="47" viewBox="0 0 35 47" fill="none" xmlns="http://www.w3.org/2000/svg">
<path d="M5.80023 11.6001V7.25007C5.80023 6.25247 5.98873 5.31577 6.36573 4.43997C6.74273 3.54967 7.26473 2.77827 7.92883 2.12867C8.57843 1.46457 9.34983 0.942571 10.2401 0.565571C11.1159 0.188571 12.0526 7.16249e-05 13.0502 7.16249e-05C13.8651 7.16249e-05 14.6423 0.127671 15.3847 0.385771C16.1271 0.643871 16.8057 1.00637 17.4234 1.47327C18.6632 0.517476 20.1848 -0.000584943 21.7502 7.16249e-05C23.1791 -0.00629904 24.5777 0.412442 25.768 1.20304C26.9583 1.99364 27.8865 3.12038 28.4347 4.43997C28.8117 5.31577 29.0002 6.25247 29.0002 7.25007V11.6001H31.9002C32.6694 11.6001 33.407 11.9056 33.9508 12.4495C34.4947 12.9933 34.8002 13.7309 34.8002 14.5001V37.7001C34.8002 38.9094 34.574 40.0404 34.1216 41.0989C33.6692 42.14 33.0486 43.0622 32.2627 43.8626C31.7407 44.373 31.1694 44.8138 30.5401 45.185L28.8291 44.4426L27.3936 43.8017L26.7788 43.4624L26.135 42.9839L25.4361 42.3691L24.6589 41.5397C23.7089 40.4877 23.1883 39.1175 23.2002 37.7001V11.6001H26.1002V7.25007C26.1002 6.64687 25.9871 6.07847 25.7609 5.55067C25.4327 4.75948 24.8755 4.08443 24.1609 3.61215C23.4462 3.13986 22.6068 2.8919 21.7502 2.90007C20.8599 2.90007 20.0595 3.14947 19.349 3.64827C19.974 4.74568 20.3019 5.98717 20.3002 7.25007V37.7001C20.288 39.8434 21.0807 41.9133 22.5216 43.5001L23.4177 44.4571L24.3109 45.2401L25.207 45.9071L26.1002 46.4001H8.70023C6.39872 46.3996 4.19117 45.4872 2.56093 43.8626C1.7652 43.0686 1.1275 42.1308 0.681733 41.0989C0.223587 40.0248 -0.00840032 38.8678 0.000232369 37.7001V14.5001C0.000232369 13.7309 0.305768 12.9933 0.849623 12.4495C1.39348 11.9056 2.1311 11.6001 2.90023 11.6001H5.80023ZM8.70023 11.6001H17.4002V7.25007C17.4002 6.64687 17.2871 6.07847 17.0609 5.55067C16.7327 4.75948 16.1755 4.08443 15.4609 3.61215C14.7462 3.13986 13.9068 2.8919 13.0502 2.90007C12.447 2.90007 11.8786 3.01317 11.3508 3.23937C10.5596 3.56763 9.88459 4.12483 9.41231 4.83945C8.94002 5.55408 8.69206 6.39353 8.70023 7.25007V11.6001Z" fill="#FF9A62"/>
</svg>
